<?xml version="1.0" encoding="UTF-8"?>
<svg id="Layer_2" xmlns="http://www.w3.org/2000/svg" version="1.1" viewBox="0 0 32.1 17.2">
  <!-- Generator: Adobe Illustrator 29.3.1, SVG Export Plug-In . SVG Version: 2.1.0 Build 151)  -->
  <defs>
    <style>
      .st0 {
        fill: #eeb2a3;
      }
    </style>
  </defs>
  <g id="Layer_1-2">
    <g id="Layer_1-21" data-name="Layer_1-2">
      <g>
        <path class="st0" d="M22.1,10.1c1.8-.8,3.7-4.1,3.8-6.9h-6.4c0,1.5-.4,3-.9,4-.3.5-1,.3-1-.3V.9c0-.4-.5-.7-.8-.4-2.3,1.6-4.2,2.5-5.5,2.2v7.4c0,.2-.1.4-.3.4-.8.5-2.2,1.2-3.3,1.2s-.6,0-.9-.2c-.4-.3-.5-.8-.5-1.1v-2.2h3.4V3h-3.4V.6c0-.4-.5-.7-.8-.4C3.8,1.8,2,2.8.1,3v8c0,1.6.7,3.1,1.8,4.3,1.7,1.7,3.5,1.8,4.4,1.8,1.4,0,2.6-.2,3.2-.3.4,0,.8-.2,1.1-.3.3-.1.7.1.7.5h0c0,.1,6.3.1,6.3.1v-2.8c0-.5.6-.7.9-.4.8.9,1.6,2.2,1.6,3.1h6.5c-.1-2.5-2-5.6-4.4-7h0Z"/>
        <path class="st0" d="M29.8,12.6h0c1.2,0,2.2,1,2.2,2.2v2.2h-4.4v-2.2c0-1.2,1-2.2,2.2-2.2h0Z"/>
      </g>
    </g>
  </g>
</svg>